<svg width="2968" height="2246" viewBox="0 0 2968 2246" fill="none" xmlns="http://www.w3.org/2000/svg">
<path d="M666.463 0H685.253C698.533 1.25434 708.316 2.61844 714.603 4.09229C757.874 14.2289 784.449 47.4376 790.963 90.1949C792.452 99.9631 792.703 111.966 791.716 126.202C789.991 151.556 785.664 174.941 778.734 196.359C742.471 308.427 692.144 419.436 630.882 524.095C577.521 615.254 524.067 704.955 461.746 797.996C346.629 969.896 232.077 1125.43 96.9005 1279.1C96.3675 1279.71 96.0697 1280.42 96.007 1281.22C93.1065 1316.4 91.4603 1351.67 91.0683 1387.03C90.9272 1399.3 92.1501 1413.23 92.3618 1426.35C92.691 1446.36 95.3484 1464.76 96.5478 1484.09C100.264 1544.06 108.526 1603.42 121.335 1662.17C130.036 1701.99 152.166 1768.88 208.983 1739.86C227.233 1730.54 242.26 1720.68 254.066 1710.27C284.144 1683.81 314.434 1649.73 340.021 1615.68C381.788 1560.09 419.878 1502.06 454.291 1441.57C454.465 1441.26 454.544 1440.91 454.519 1440.56C454.494 1440.21 454.366 1439.87 454.15 1439.59C411.866 1384.2 436.206 1304.57 462.287 1246.5C480.442 1206.12 502.172 1174.32 534.626 1146.88C541.979 1140.65 549.293 1134.39 556.567 1128.11C556.753 1127.95 556.97 1127.84 557.202 1127.78C558.284 1127.5 561.036 1126.39 565.457 1124.46C576.526 1119.63 583.534 1116.67 586.481 1115.57C622.251 1102.26 665.593 1104.07 689.698 1137.51C690.184 1138.2 690.764 1138.3 691.438 1137.8C704.78 1127.86 717.417 1128.37 729.348 1139.35C736.779 1146.17 738.778 1156 736.215 1165.71C735.345 1168.98 734.757 1172.77 733.158 1175.69C704.42 1227.94 682.478 1286.22 680.668 1346.43C679.28 1393.31 711.828 1385 736.897 1365.74C785.883 1328.11 825.839 1280.91 859.351 1229.76C859.79 1229.07 859.829 1228.36 859.469 1227.64C848.698 1206.68 844.747 1186.93 846.464 1163.27C846.479 1162.89 846.597 1162.55 846.816 1162.23C846.957 1162.01 847.091 1161.8 847.216 1161.6C847.357 1161.38 847.451 1161.14 847.498 1160.89C856.905 1103.58 896.649 1033.49 967.389 1051.13C984.956 1055.53 996.856 1073.54 994.246 1091.25C993.054 1099.28 990.365 1107.49 986.179 1115.88C970.297 1147.75 951.781 1177.79 930.632 1205.98C930.414 1206.27 930.296 1206.62 930.296 1206.98C930.296 1207.34 930.414 1207.69 930.632 1207.98C950.323 1233.6 971.889 1257.52 995.327 1279.76C996.284 1280.67 997.271 1280.71 998.291 1279.87C1040.28 1245.93 1086.65 1218.8 1137.42 1198.5C1148.55 1194.05 1161.26 1191.35 1175.54 1190.41C1176.39 1190.35 1176.9 1189.9 1177.07 1189.07C1197.1 1084.17 1214.04 1009.24 1240.85 906.771C1261.48 827.904 1284.19 749.845 1308.98 672.593C1309.31 671.574 1308.94 671.182 1307.89 671.417C1171.68 702.792 1035.09 735.765 900.647 773.842C806.124 800.622 711.577 827.34 617.007 853.994C610.351 855.852 604.213 857.993 597.276 856.605C590.377 855.21 584.122 852.96 578.509 849.855C553.299 835.861 553.886 798.702 575.569 782.144C580.727 778.224 589.977 774.391 603.32 770.644C648.269 758.022 693.375 745.917 738.637 734.33C935.037 684.094 1132.57 638.773 1331.22 598.368C1332.04 598.211 1332.57 597.725 1332.82 596.909C1334.16 592.3 1336.7 588.349 1338.07 584.186C1379.95 456.125 1427.31 328.277 1488.2 207.907C1492.83 198.782 1499.44 189.421 1504.66 179.872C1516.28 158.611 1538.36 133.352 1563.41 129.66C1571.28 128.484 1579.06 129.542 1586.76 132.835C1596.5 136.99 1604.67 143.371 1611.27 151.979C1613.55 154.966 1616.72 162.962 1617.62 166.914C1629.09 217.714 1611.52 269.315 1588.97 314.283C1551.27 389.481 1505.74 459.685 1452.41 524.895C1449.3 528.673 1446.92 532.813 1445.26 537.313C1440.26 550.703 1435.38 563.873 1430.63 576.824C1430.25 577.828 1430.59 578.228 1431.64 578.024C1576.7 550.224 1722.46 525.318 1868.8 505.938C1869.57 505.844 1870.21 505.507 1870.73 504.927C1883.15 491.176 1895.61 477.535 1908.12 464.004C1911.32 460.523 1922.19 456.361 1928.18 456.337C1936.35 456.29 1942.68 457.129 1947.16 458.854C1955.72 462.17 1956.15 470.378 1962.45 476.54C1963.01 477.104 1963.29 477.778 1963.29 478.562L1963.27 492.721C1963.27 493.614 1963.72 494.006 1964.61 493.897C2042.97 484.583 2122.01 476.328 2200.84 472.353C2236.82 470.542 2273.04 466.521 2309.02 466.097C2362.29 465.462 2415.72 463.228 2468.94 465.768C2480.27 466.309 2496.33 476.893 2500.52 486.394C2506.75 500.6 2499.42 510.501 2491.25 521.249C2488.56 524.808 2485.33 528.03 2481.57 530.915C2458.6 548.461 2433.93 563.168 2407.56 575.037C2407.43 575.1 2406.49 575.625 2404.74 576.613C2402.15 578.055 2398.49 578.682 2393.75 578.494C2378.73 577.859 2376.82 564.665 2377.95 552.459C2378.03 551.69 2378.35 551.048 2378.91 550.53C2382.71 547.049 2386.88 544.07 2391.42 541.593C2403.73 534.882 2416.11 528.289 2428.56 521.814C2436.62 517.604 2443.94 512.806 2450.19 507.373C2452.77 505.147 2452.36 504.12 2448.97 504.292C2400.1 506.62 2355 508.314 2302.55 511.042C2240.97 514.241 2198.44 517.329 2174.97 520.308C2096.59 530.233 2018.37 537.595 1940.32 550.671C1939.42 550.828 1938.78 551.314 1938.39 552.129C1909.86 610.927 1881.85 670.124 1852.11 728.427C1847.28 737.897 1842.1 747.179 1836.58 756.273C1831.61 764.474 1827.69 772.109 1824.83 779.181C1776.9 897.34 1739.22 1016.04 1715.71 1144.19C1706.61 1193.74 1707.03 1242.13 1716.95 1289.38C1722.06 1313.69 1731.23 1338.2 1747.08 1355.11C1760.98 1369.95 1783.04 1381.59 1803.99 1379.31C1836.04 1375.86 1865.37 1360.45 1889.52 1339.68C1927.88 1306.69 1958.45 1267.1 1987.07 1225.31C1987.46 1224.73 1987.45 1224.16 1987.05 1223.59C1934.65 1151.3 1945.7 1058.26 2021.31 1007.15C2026.31 1003.78 2032.31 1000.96 2039.3 998.683C2049.74 995.296 2060.94 990.404 2071.92 990.216C2076.58 990.137 2081.24 990.153 2085.91 990.263C2086.68 990.294 2087.38 990.529 2088.01 990.969C2091 993.038 2094.39 993.665 2098.17 992.85C2099.06 992.662 2099.87 992.842 2100.61 993.391C2101.57 994.112 2102.67 994.418 2103.9 994.308C2104.06 994.292 2104.22 994.309 2104.37 994.358C2104.52 994.407 2104.66 994.488 2104.78 994.594C2104.9 994.701 2104.99 994.831 2105.05 994.976C2105.12 995.121 2105.15 995.278 2105.15 995.437L2105.17 998.283C2105.17 999.067 2105.45 999.733 2106 1000.28C2120.48 1015.03 2120.53 1031 2115.64 1050.61C2104.63 1094.78 2081.56 1139.04 2057.39 1179.68C2057.24 1179.93 2057.17 1180.21 2057.18 1180.49C2057.19 1180.77 2057.29 1181.04 2057.46 1181.26C2065.17 1191.82 2075.94 1200.87 2082.74 1209.81C2133.06 1275.92 2128.22 1346.29 2100.31 1419.6C2090.43 1445.54 2084.13 1465.72 2076.51 1489.1C2074.66 1494.84 2074.05 1499.77 2074.7 1503.89C2076.58 1515.93 2087.89 1531.27 2102.16 1528.56C2120.3 1525.11 2137.09 1515.3 2149.83 1503C2170.48 1483.09 2190.28 1460.22 2209.24 1434.39C2209.71 1433.75 2209.81 1433.05 2209.54 1432.3C2204.78 1418.61 2202.13 1407.83 2201.62 1399.96C2200.05 1376.15 2202.34 1349.45 2208.48 1319.88C2220.12 1264.06 2239.43 1211.05 2266.41 1160.85C2287.13 1122.27 2310.67 1079.63 2343.5 1052.12C2358.78 1039.3 2384.09 1015.15 2405.46 1017.22C2418.61 1018.51 2430.09 1020.93 2438.36 1031.35C2449.67 1045.57 2452.5 1061.33 2446.85 1078.62C2441.12 1096.29 2427.15 1099.18 2411.84 1106.19C2411.73 1106.24 2411.64 1106.32 2411.57 1106.42C2411.5 1106.51 2411.46 1106.62 2411.45 1106.74C2411.43 1106.86 2411.45 1106.97 2411.5 1107.08C2411.55 1107.18 2411.62 1107.27 2411.72 1107.34C2448.05 1132.83 2469.76 1167.65 2476.86 1211.79C2476.93 1212.18 2477.09 1212.55 2477.34 1212.86C2477.6 1213.17 2477.92 1213.41 2478.3 1213.55C2502.75 1223.1 2528.1 1228.69 2554.33 1230.32C2555.32 1230.38 2555.95 1229.94 2556.23 1229C2572.86 1175.1 2592.26 1120.89 2619.59 1072.01C2627.49 1057.9 2637.5 1045.13 2649.62 1033.7C2652.16 1031.32 2655.4 1029.42 2659.33 1028.01C2665.45 1025.78 2671.54 1022.15 2677.77 1021.66C2702.3 1019.76 2717.87 1040.05 2720.83 1062.89C2720.94 1063.74 2721.33 1063.9 2722.01 1063.38C2733.56 1054.67 2745.88 1047.22 2758.97 1041.04C2761.09 1040.03 2762.95 1040.31 2764.97 1039.49C2777.75 1034.35 2790.97 1033.38 2804.64 1036.6C2852.41 1047.77 2857.37 1112.87 2850.53 1150.71C2845.26 1180 2837.84 1208.61 2828.26 1236.55C2828.21 1236.69 2828.2 1236.85 2828.24 1236.99C2828.28 1237.14 2828.36 1237.26 2828.48 1237.36C2828.6 1237.45 2828.74 1237.51 2828.89 1237.52C2829.04 1237.53 2829.19 1237.5 2829.31 1237.42C2841.68 1230.26 2854.44 1223.68 2867.58 1217.69C2889.38 1207.77 2914.85 1201.13 2938.88 1193.89C2945.03 1192.04 2950.05 1191.58 2953.96 1192.53C2973.19 1197.14 2972.35 1225.97 2953.39 1228.79C2900.52 1236.67 2852.41 1261.72 2808.36 1290.13C2807.67 1290.57 2807.17 1291.17 2806.86 1291.94C2781.44 1354.94 2748.74 1413.87 2708.74 1468.73C2692.09 1491.54 2650.4 1531.71 2619.59 1514.48C2613.79 1511.23 2609.04 1506.84 2605.36 1501.3C2599.48 1492.49 2597.76 1473.69 2601.1 1463.37C2609.59 1437.15 2622.39 1417.88 2639.95 1395.45C2667.89 1359.77 2701.99 1327.76 2737.71 1300.17C2738.21 1299.8 2738.59 1299.3 2738.82 1298.71C2764.03 1234.13 2785.17 1165.62 2786.4 1095.75C2786.43 1093.44 2785.44 1091.72 2783.43 1090.59C2781.6 1089.58 2778.85 1089.61 2775.2 1090.71C2739.13 1101.53 2715.75 1131.96 2692.12 1165.1C2659.17 1211.32 2633.6 1259.51 2611.92 1311.15C2606.21 1324.78 2600.9 1339.51 2595.98 1355.35C2560.3 1470.35 2531.89 1588.04 2515.38 1707.38C2515.36 1707.53 2515.37 1707.69 2515.41 1707.84C2515.45 1707.99 2515.53 1708.13 2515.62 1708.26C2515.72 1708.38 2515.85 1708.48 2515.99 1708.56C2516.13 1708.63 2516.28 1708.68 2516.44 1708.69C2599.49 1716.99 2682.45 1727.17 2765.32 1739.25C2770.65 1740.01 2775.01 1741.57 2778.38 1743.93C2789.57 1751.73 2804.72 1768.62 2788.28 1781.09C2767.93 1796.44 2727.6 1793.36 2703.52 1792C2638.75 1788.35 2574.25 1780.17 2509.95 1771.94C2509.17 1771.84 2508.74 1772.19 2508.66 1772.97C2506.34 1797.05 2505.57 1814.8 2506.35 1826.22C2507.53 1843.32 2493.56 1858.6 2475.99 1851.52C2467.87 1848.23 2463.58 1841.56 2463.1 1831.51C2462.12 1810.01 2461.63 1788.5 2461.65 1766.97C2461.65 1766.19 2461.25 1765.75 2460.47 1765.66C2404.69 1758.37 2336.54 1749.34 2276.1 1747.15C2150.26 1742.57 2024.44 1742.51 1898.62 1746.96C1883.4 1747.49 1867.74 1747.76 1851.63 1747.76C1682.73 1747.67 1512.82 1758.74 1345.64 1783.13C1286.92 1791.69 1228.24 1800.52 1169.59 1809.61C1169.04 1809.69 1168.77 1810.01 1168.77 1810.58C1168.92 1832.2 1169.53 1853.88 1170.6 1875.63C1170.88 1881.31 1168.15 1886.72 1162.39 1891.86C1151.83 1901.24 1136.05 1898.68 1128.39 1887.32C1126.4 1884.39 1125.1 1879.89 1124.48 1873.82C1122.6 1855.24 1121.05 1836.68 1119.83 1818.15C1119.78 1817.54 1119.45 1817.28 1118.84 1817.38C1066.9 1825.25 1015.05 1834.02 963.297 1843.69C817.326 1870.97 663.1 1913.87 514.072 1954.02C485.122 1961.8 455.773 1969.59 427.623 1979.98C397.92 1990.94 371.134 1997.55 329.391 2007.57C300.403 2014.52 271.884 2025.49 243.836 2040.48C233.724 2045.86 219.26 2048.85 207.572 2045.74C188.853 2040.76 178.811 2023.33 191.557 2005.6C193.36 2003.1 195.939 2001.24 199.294 2000C497.085 1890.06 802.479 1808.42 1115.48 1755.1C1116.29 1754.96 1116.69 1754.48 1116.68 1753.66C1114.65 1578.14 1137.25 1402.08 1169.54 1229.9C1169.57 1229.76 1169.56 1229.62 1169.52 1229.49C1169.48 1229.36 1169.41 1229.24 1169.31 1229.15C1169.21 1229.05 1169.09 1228.98 1168.96 1228.94C1168.83 1228.91 1168.69 1228.9 1168.55 1228.93C1116.25 1240.22 1065.01 1274.51 1023.62 1307.49C1023.32 1307.71 1023.3 1307.95 1023.57 1308.21C1046.85 1331.62 1065.45 1358.12 1079.35 1387.71C1094.66 1420.33 1104.64 1448.13 1097.39 1481.67C1087.59 1526.99 1065.5 1560.62 1033.78 1592.72C1002.92 1623.93 949.163 1655.42 904.104 1652.06C849.685 1648.02 822.311 1607.35 816.126 1556.95C814.841 1546.52 815.366 1535.17 817.702 1522.9C832.142 1446.84 881.128 1381.69 938.769 1331.97C938.893 1331.86 938.994 1331.73 939.067 1331.59C939.139 1331.44 939.181 1331.28 939.19 1331.12C939.199 1330.96 939.175 1330.79 939.118 1330.64C939.062 1330.49 938.975 1330.35 938.863 1330.23C920.159 1310.5 902.67 1289.75 886.396 1267.97C886.288 1267.83 886.148 1267.71 885.985 1267.62C885.823 1267.54 885.643 1267.49 885.461 1267.49C885.278 1267.49 885.098 1267.53 884.934 1267.61C884.769 1267.69 884.626 1267.81 884.514 1267.95C858.363 1301.46 829.829 1332.81 798.912 1362C777.401 1382.31 757.083 1397.69 737.955 1408.15C724.66 1415.41 708.833 1418.09 690.474 1416.19C672.225 1414.31 659.181 1404.52 651.342 1386.84C644.443 1371.3 640.931 1355.41 640.806 1339.17C640.79 1337.13 640.273 1336.99 639.254 1338.77C616.395 1378.54 585.846 1421.88 546.314 1446.86C530.244 1457.02 512.222 1460.7 492.248 1457.89C491.889 1457.84 491.524 1457.89 491.203 1458.05C490.882 1458.21 490.623 1458.47 490.461 1458.78C455.679 1524.47 417.628 1584.91 376.379 1645.81C349.381 1685.65 319.679 1721.3 284.709 1754.44C256.465 1781.23 217.591 1807.24 176.6 1808.13C154.996 1808.62 134.583 1801.55 115.362 1786.94C96.5948 1772.66 82.5551 1757.55 73.2423 1741.62C31.5228 1670.26 14.5669 1588.14 6.80625 1506.38C0.291988 1437.64 -2.60056 1383.66 2.90246 1317.65C11.6038 1213.46 28.1599 1110.53 52.5707 1008.87C105.249 789.451 183.577 579.678 287.554 379.548C320.086 316.956 356.899 256.999 397.991 199.675C432.091 152.105 470.259 109.716 512.496 72.5087C554.733 35.3254 609.951 5.45638 666.463 0ZM334.824 482.419C222.647 711.752 142.594 960.206 104.45 1212.99C104.324 1213.74 104.277 1214.39 104.309 1214.94C104.308 1215.04 104.339 1215.14 104.397 1215.22C104.455 1215.3 104.538 1215.36 104.635 1215.4C104.732 1215.43 104.839 1215.43 104.94 1215.41C105.041 1215.38 105.132 1215.32 105.202 1215.24C127.003 1189.68 150.496 1163.55 170.674 1138.64C243.695 1048.54 305.898 961.17 376.802 858.769C445.472 759.598 507.683 659.775 563.434 559.303C606.353 481.996 646.662 404.29 680.08 327.689C698.172 286.248 713.004 241.531 724.574 193.537C730.642 168.325 742.4 94.9458 713.991 77.9181C709.366 75.1429 702.868 73.9591 694.496 74.3667C653.529 76.3894 616.371 94.6635 585.611 121.593C540.223 161.34 500.667 206.221 466.943 256.238C414.72 333.725 370.68 409.119 334.824 482.419ZM1525.9 1026.62C1567.36 1026.58 1603.03 1042.45 1625.66 1075.07C1625.75 1075.2 1625.87 1075.31 1626.01 1075.38C1626.16 1075.46 1626.32 1075.49 1626.48 1075.48C1626.64 1075.48 1626.79 1075.43 1626.93 1075.34C1627.07 1075.26 1627.18 1075.14 1627.26 1075C1630.22 1069.73 1633.07 1064.47 1635.79 1059.22C1638.4 1054.17 1640.39 1048.61 1641.77 1042.52C1679.18 876.431 1743.6 718.432 1827.58 569.722C1828.03 568.906 1827.8 568.569 1826.87 568.71C1805.66 571.705 1788.62 574.292 1775.74 576.472C1668.79 594.628 1561.72 614.525 1455.96 638.703C1439.54 642.45 1423.08 645.931 1406.57 649.145C1406.21 649.208 1405.97 649.411 1405.84 649.756C1327.27 883.017 1261.12 1120.44 1215.12 1362.36C1191.13 1488.56 1174.48 1616.48 1169.82 1744.96C1169.82 1745.09 1169.85 1745.21 1169.9 1745.33C1169.95 1745.45 1170.03 1745.55 1170.12 1745.63C1170.22 1745.71 1170.33 1745.78 1170.45 1745.81C1170.57 1745.84 1170.69 1745.85 1170.81 1745.83C1599.95 1678.5 2030.91 1664.51 2463.69 1703.85C2463.87 1703.87 2464.04 1703.85 2464.21 1703.8C2464.38 1703.74 2464.53 1703.66 2464.67 1703.55C2464.8 1703.44 2464.91 1703.3 2464.99 1703.14C2465.07 1702.99 2465.12 1702.82 2465.13 1702.65C2468.51 1657.96 2473.62 1613.96 2480.95 1567.53C2496.93 1466.26 2518.22 1366.06 2544.83 1266.92C2545.05 1266.08 2544.72 1265.64 2543.86 1265.58C2522.09 1263.83 2500.89 1259.38 2480.27 1252.22C2479.46 1251.93 2479.03 1252.23 2479 1253.11C2478.7 1263.54 2477.85 1272.89 2476.44 1281.17C2464.09 1353.86 2431 1420.8 2374.52 1469.55C2335.88 1502.88 2270.43 1511.07 2232.19 1472.61C2232.1 1472.52 2231.99 1472.45 2231.87 1472.41C2231.76 1472.36 2231.63 1472.35 2231.5 1472.36C2231.37 1472.37 2231.25 1472.41 2231.14 1472.47C2231.02 1472.54 2230.93 1472.62 2230.85 1472.73C2201.24 1514.62 2139.67 1585.36 2081.42 1577.2C2078.1 1576.73 2074.07 1575.45 2069.33 1573.37C2057.5 1568.15 2049.37 1565.89 2039.3 1555.07C2026.18 1540.98 2014.09 1520.33 2013.83 1500.51C2013.53 1477.1 2016.26 1454.14 2022.02 1431.64C2036.36 1375.41 2054.96 1312.52 2016.21 1260.54C2014.53 1258.32 2012.52 1256.2 2010.16 1254.19C2009.51 1253.64 2008.93 1253.71 2008.45 1254.4C1968.63 1310.47 1920.54 1364.35 1862.69 1402.27C1820.38 1429.97 1770.22 1436.6 1723.89 1413.93C1638.05 1371.9 1617.45 1273.64 1624.13 1186.76C1624.18 1185.96 1623.85 1185.38 1623.14 1185C1616.81 1181.68 1612.79 1176.52 1611.08 1169.52C1611.02 1169.3 1610.9 1169.09 1610.72 1168.93C1610.55 1168.77 1610.33 1168.67 1610.1 1168.64C1609.87 1168.6 1609.63 1168.64 1609.42 1168.75C1609.21 1168.85 1609.03 1169.01 1608.91 1169.22C1578.45 1222.98 1546.07 1275.79 1511.76 1327.64C1494.62 1353.54 1475.15 1382.28 1452.31 1401.77C1447.99 1405.49 1443.05 1407.16 1437.94 1409.68C1414.14 1421.36 1375.25 1422.7 1352.65 1407.35C1348.12 1404.26 1343.55 1401.19 1338.94 1398.15C1334.97 1395.55 1330.75 1390.59 1326.28 1383.26C1306.41 1350.78 1301.73 1312.45 1308.04 1275.31C1313.61 1242.5 1325.18 1218.47 1337.62 1190.2C1346.06 1171.08 1355.75 1157.36 1366.15 1141.21C1377.5 1123.59 1393.61 1103.93 1404.41 1091.49C1430.86 1061.02 1464.79 1040.23 1506.21 1029.12C1512.42 1027.45 1518.98 1026.62 1525.9 1026.62ZM2034.43 1139.14C2048.66 1112.51 2059.36 1081 2067.5 1051.01C2068.46 1047.52 2067.4 1046.72 2064.35 1048.64C2052.24 1056.19 2043.06 1066.71 2036.81 1080.18C2028.04 1098.99 2027.43 1119.36 2033.59 1139.07C2033.61 1139.15 2033.66 1139.23 2033.73 1139.29C2033.8 1139.34 2033.88 1139.38 2033.97 1139.39C2034.06 1139.39 2034.16 1139.37 2034.24 1139.33C2034.32 1139.29 2034.39 1139.22 2034.43 1139.14ZM1446.86 1173.8C1421.95 1210.63 1402.13 1251.42 1393.54 1295.26C1391.1 1307.74 1388.44 1337.07 1397.66 1346.95C1398.17 1347.49 1398.82 1347.86 1399.54 1348.03C1407.96 1349.96 1417.15 1351.7 1425.17 1347.14C1447.3 1334.53 1469.39 1309.13 1485.17 1289.26C1525.24 1238.79 1560.92 1184.83 1593.93 1129.52C1594.14 1129.17 1594.24 1128.76 1594.2 1128.35C1594.16 1127.95 1593.99 1127.56 1593.72 1127.26C1582.27 1114.3 1564.02 1099.56 1546.5 1097.98C1515.86 1095.23 1481.22 1126.46 1464.31 1149.63C1459.2 1156.64 1454.96 1161.91 1451.61 1165.46C1449.4 1167.78 1448.64 1171.17 1446.86 1173.8ZM2389.99 1140.78L2421.5 1178.34C2421.51 1178.36 2421.52 1178.37 2421.54 1178.37C2421.55 1178.38 2421.56 1178.39 2421.58 1178.39C2421.6 1178.39 2421.61 1178.39 2421.63 1178.39C2421.64 1178.38 2421.66 1178.38 2421.67 1178.37L2421.74 1178.27C2422.74 1177.43 2422.06 1174.67 2419.85 1170.59C2417.63 1166.51 2414.07 1161.45 2409.93 1156.52L2409.49 1155.98C2407.43 1153.53 2405.3 1151.19 2403.22 1149.09C2401.13 1146.99 2399.13 1145.17 2397.33 1143.74C2395.53 1142.31 2393.96 1141.29 2392.72 1140.74C2391.47 1140.19 2390.58 1140.13 2390.08 1140.55L2390.01 1140.62C2389.99 1140.64 2389.97 1140.67 2389.97 1140.7C2389.96 1140.73 2389.97 1140.76 2389.99 1140.78ZM2390.84 1378.32C2393.59 1373.62 2397.35 1370.12 2399.56 1365.3C2403.86 1355.92 2408.39 1346.66 2413.15 1337.52C2418.49 1327.31 2421.6 1316.71 2425.55 1305.98C2429.33 1295.75 2430.82 1284.86 2433.76 1274.14C2436.31 1264.81 2437.12 1251.19 2436.18 1233.28C2436.15 1232.5 2435.79 1231.92 2435.1 1231.54C2403.08 1213.7 2377.42 1189.22 2358.12 1158.09C2358.09 1158.03 2358.04 1157.98 2357.98 1157.94C2357.92 1157.91 2357.85 1157.88 2357.78 1157.88C2357.71 1157.88 2357.64 1157.89 2357.58 1157.92C2357.52 1157.95 2357.46 1157.99 2357.42 1158.05C2327.76 1195.63 2308.48 1236.53 2288.44 1280.02C2272.03 1315.62 2262.56 1351.48 2260.03 1387.59C2258.39 1411.3 2267.07 1440.11 2293.73 1442.81C2337.05 1447.21 2370.99 1412.36 2390.84 1378.32ZM588.527 1197.58C541.704 1249.91 513.86 1325.6 511.508 1395.78C511.495 1396.08 511.598 1396.38 511.798 1396.62C511.999 1396.85 512.281 1397 512.59 1397.05C522.256 1398.08 529.311 1397 538.224 1392.34C562.635 1379.59 580.437 1360.4 596.311 1338.2C625.394 1297.55 648.12 1254.25 664.488 1208.31C665.734 1204.83 667.192 1199.93 665.475 1195.63C658.797 1178.79 643.981 1162.42 624.015 1173.15C616.881 1176.97 610.571 1180.54 605.083 1183.85C598.906 1187.58 593.387 1192.16 588.527 1197.58ZM876.236 1475.18C868.099 1491.33 863.051 1508.39 861.091 1526.38C859.257 1543.29 863.067 1553.56 866.006 1568.19C866.931 1572.72 870.247 1578.67 875.954 1586.04C881.661 1593.41 889.202 1597.64 898.578 1598.72C905.727 1599.54 914.507 1597.62 924.917 1592.98C944.373 1584.34 961.353 1572.22 975.855 1556.62C1005.84 1524.4 1035.75 1478.91 1017.17 1433.55C1006 1406.31 987.143 1380.21 965.954 1359.2C965.39 1358.64 964.818 1358.62 964.238 1359.16C927.802 1392.44 898.468 1431.12 876.236 1475.18ZM2699.95 1384.89C2691.07 1394.54 2682.65 1404.57 2674.69 1414.97C2661.05 1432.75 2650 1446.55 2644.63 1464.17C2642.75 1470.35 2643.94 1471 2648.18 1466.12C2669.46 1441.66 2686.88 1414.69 2700.44 1385.22C2700.97 1384.06 2700.81 1383.95 2699.95 1384.89Z" fill="white"/>
<path d="M2315.09 2025.4L2314.5 1992.51C2314.49 1991.66 2314.9 1991.23 2315.75 1991.22L2339.3 1990.82C2340.16 1990.8 2340.6 1991.22 2340.62 1992.08L2341.2 2039.41C2341.2 2040.15 2340.91 2040.72 2340.31 2041.12C2318.58 2055.88 2295.83 2060.35 2272.06 2054.53C2216.46 2040.94 2206.37 1966.43 2256.2 1938.68C2282.38 1924.07 2318.11 1928.14 2341.25 1949.1C2342.24 1949.99 2342.25 1950.9 2341.28 1951.82L2325.25 1966.99C2324.61 1967.58 2323.97 1967.58 2323.34 1966.97C2291.22 1935.88 2238.24 1965.93 2256.27 2010.25C2265.01 2031.78 2293.43 2038.03 2313.89 2027.39C2314.71 2026.97 2315.11 2026.3 2315.09 2025.4Z" fill="white"/>
<path d="M2414.58 1981.48L2469.83 1981.78C2470.05 1981.78 2470.25 1981.87 2470.4 1982.02C2470.55 1982.17 2470.63 1982.37 2470.63 1982.58L2470.35 2003.22C2470.35 2003.43 2470.27 2003.63 2470.12 2003.78C2469.97 2003.93 2469.76 2004.02 2469.55 2004.02L2414.51 2003.45C2414.3 2003.45 2414.09 2003.54 2413.94 2003.69C2413.79 2003.84 2413.71 2004.04 2413.71 2004.25L2413.38 2030.86C2413.38 2031.07 2413.46 2031.28 2413.61 2031.43C2413.76 2031.58 2413.97 2031.66 2414.18 2031.66L2479.2 2032.25C2479.41 2032.25 2479.62 2032.33 2479.77 2032.48C2479.92 2032.63 2480 2032.84 2480 2033.05L2479.76 2054.2C2479.76 2054.41 2479.68 2054.62 2479.53 2054.77C2479.38 2054.92 2479.18 2055 2478.96 2055L2385.8 2054.36C2385.59 2054.36 2385.38 2054.28 2385.23 2054.13C2385.08 2053.98 2385 2053.78 2385 2053.56L2385.92 1932.8C2385.92 1932.59 2386 1932.38 2386.15 1932.23C2386.3 1932.08 2386.51 1932 2386.72 1932L2477.72 1932.52C2477.93 1932.52 2478.13 1932.6 2478.28 1932.75C2478.43 1932.9 2478.52 1933.11 2478.52 1933.32L2478.35 1954.59C2478.35 1954.69 2478.33 1954.8 2478.29 1954.89C2478.25 1954.99 2478.19 1955.08 2478.12 1955.15C2478.04 1955.23 2477.96 1955.28 2477.86 1955.33C2477.76 1955.37 2477.66 1955.39 2477.55 1955.39L2414.74 1955.01C2414.53 1955.01 2414.33 1955.09 2414.18 1955.24C2414.03 1955.39 2413.94 1955.6 2413.94 1955.81L2413.78 1980.68C2413.78 1980.89 2413.86 1981.09 2414.01 1981.24C2414.16 1981.39 2414.37 1981.48 2414.58 1981.48Z" fill="white"/>
<path d="M2102.18 1987.35L2103.92 2058.66C2103.93 2058.76 2103.91 2058.86 2103.88 2058.95C2103.84 2059.04 2103.79 2059.13 2103.72 2059.2C2103.65 2059.27 2103.57 2059.33 2103.48 2059.37C2103.39 2059.41 2103.29 2059.43 2103.2 2059.43L2076.69 2060C2076.59 2060 2076.49 2059.99 2076.4 2059.95C2076.31 2059.92 2076.22 2059.86 2076.15 2059.8C2076.08 2059.73 2076.02 2059.65 2075.98 2059.56C2075.94 2059.47 2075.92 2059.37 2075.91 2059.27L2073 1938.41C2073 1938.31 2073.01 1938.21 2073.05 1938.12C2073.08 1938.03 2073.14 1937.94 2073.2 1937.87C2073.27 1937.8 2073.35 1937.74 2073.44 1937.7C2073.53 1937.66 2073.63 1937.64 2073.73 1937.64L2096.15 1937.16C2096.26 1937.16 2096.37 1937.18 2096.47 1937.23C2096.57 1937.27 2096.66 1937.34 2096.73 1937.42L2157.5 2008.19C2157.6 2008.31 2157.74 2008.39 2157.89 2008.43C2158.04 2008.46 2158.19 2008.45 2158.34 2008.4C2158.48 2008.34 2158.61 2008.24 2158.69 2008.11C2158.78 2007.98 2158.82 2007.83 2158.82 2007.68L2157.08 1936.41C2157.07 1936.31 2157.09 1936.21 2157.12 1936.12C2157.16 1936.03 2157.21 1935.94 2157.28 1935.87C2157.35 1935.8 2157.43 1935.74 2157.52 1935.7C2157.61 1935.66 2157.71 1935.64 2157.8 1935.64L2184.31 1935C2184.41 1935 2184.51 1935.01 2184.6 1935.05C2184.69 1935.08 2184.78 1935.14 2184.85 1935.2C2184.92 1935.27 2184.98 1935.35 2185.02 1935.44C2185.06 1935.53 2185.08 1935.63 2185.09 1935.73L2188 2056.56C2188 2056.66 2187.99 2056.76 2187.95 2056.85C2187.92 2056.95 2187.86 2057.03 2187.8 2057.1C2187.73 2057.18 2187.65 2057.23 2187.56 2057.27C2187.47 2057.32 2187.37 2057.34 2187.27 2057.34L2165.07 2057.95C2164.95 2057.95 2164.84 2057.93 2164.74 2057.88C2164.64 2057.83 2164.55 2057.76 2164.48 2057.67L2103.5 1986.85C2103.4 1986.74 2103.27 1986.66 2103.12 1986.62C2102.97 1986.58 2102.82 1986.59 2102.67 1986.65C2102.53 1986.7 2102.41 1986.8 2102.32 1986.92C2102.23 1987.05 2102.19 1987.2 2102.18 1987.35Z" fill="white"/>
<path d="M1969.74 2038.57C1992.85 2040.37 2002.05 2025.61 2001.39 2004.42C2000.73 1982.83 2000.23 1961.2 1999.88 1939.55C1999.87 1938.73 2000.27 1938.32 2001.09 1938.31L2026.54 1938C2027.46 1937.98 2027.94 1938.44 2027.97 1939.36C2028.73 1970.94 2029.07 1994.95 2028.99 2011.4C2028.85 2038.21 2012.93 2056.73 1987.05 2061.67C1961.98 2066.48 1932.94 2058.44 1922.8 2034C1919.89 2026.97 1918.22 2013.29 1917.78 1992.96C1917.4 1975.69 1917.14 1958.4 1917 1941.07C1917 1940.07 1917.5 1939.56 1918.51 1939.55L1944.34 1939.29C1945.08 1939.27 1945.45 1939.63 1945.47 1940.37C1945.91 1975.32 1946.28 1998.62 1946.58 2010.28C1946.93 2024.32 1954.31 2037.35 1969.74 2038.57Z" fill="white"/>
<path d="M1880.95 2001.17C1881.3 2009.56 1879.9 2017.95 1876.84 2025.85C1873.77 2033.75 1869.1 2041.01 1863.08 2047.21C1857.07 2053.41 1849.83 2058.43 1841.78 2061.99C1833.73 2065.54 1825.03 2067.56 1816.17 2067.94C1798.28 2068.69 1780.85 2062.67 1767.7 2051.21C1754.55 2039.76 1746.76 2023.79 1746.05 2006.83C1745.7 1998.44 1747.1 1990.05 1750.16 1982.15C1753.23 1974.25 1757.9 1966.99 1763.92 1960.79C1769.93 1954.59 1777.17 1949.57 1785.22 1946.01C1793.27 1942.46 1801.97 1940.43 1810.83 1940.06C1828.72 1939.31 1846.15 1945.33 1859.3 1956.79C1872.45 1968.24 1880.24 1984.21 1880.95 2001.17ZM1815.15 2043.49C1825.37 2043.07 1835.01 2038.49 1841.92 2030.78C1848.84 2023.07 1852.49 2012.86 1852.05 2002.38C1851.61 1991.91 1847.13 1982.03 1839.59 1974.93C1832.05 1967.82 1822.07 1964.08 1811.85 1964.51C1801.63 1964.93 1791.99 1969.51 1785.08 1977.22C1778.16 1984.93 1774.51 1995.14 1774.95 2005.62C1775.39 2016.09 1779.87 2025.97 1787.41 2033.07C1794.95 2040.18 1804.93 2043.92 1815.15 2043.49Z" fill="white"/>
<path d="M1664 2050.94L1723.59 2046.82C1723.71 2046.81 1723.82 2046.83 1723.92 2046.86C1724.03 2046.9 1724.13 2046.96 1724.21 2047.03C1724.29 2047.11 1724.36 2047.2 1724.41 2047.3C1724.46 2047.4 1724.48 2047.51 1724.49 2047.62L1726 2069.06C1726 2069.17 1725.99 2069.28 1725.95 2069.38C1725.92 2069.49 1725.86 2069.59 1725.78 2069.67C1725.71 2069.75 1725.62 2069.82 1725.52 2069.87C1725.42 2069.92 1725.31 2069.94 1725.2 2069.95L1637.17 2076C1637.06 2076 1636.95 2075.99 1636.84 2075.95C1636.74 2075.92 1636.64 2075.86 1636.56 2075.78C1636.47 2075.71 1636.41 2075.62 1636.36 2075.52C1636.31 2075.42 1636.28 2075.31 1636.28 2075.2L1628 1954.71C1628 1954.6 1628.01 1954.48 1628.05 1954.38C1628.08 1954.27 1628.14 1954.18 1628.22 1954.09C1628.29 1954.01 1628.38 1953.94 1628.48 1953.9C1628.58 1953.85 1628.69 1953.82 1628.8 1953.81L1655.51 1952C1655.62 1952 1655.74 1952.01 1655.84 1952.05C1655.95 1952.08 1656.04 1952.14 1656.13 1952.22C1656.21 1952.29 1656.28 1952.38 1656.33 1952.48C1656.37 1952.58 1656.4 1952.69 1656.41 1952.8L1663.1 2050.14C1663.11 2050.25 1663.14 2050.36 1663.19 2050.46C1663.23 2050.56 1663.3 2050.65 1663.38 2050.72C1663.47 2050.8 1663.56 2050.85 1663.67 2050.89C1663.78 2050.93 1663.89 2050.94 1664 2050.94Z" fill="white"/>
<path d="M1476.63 2026.28L1498.79 2042.49C1498.96 2042.61 1499.15 2042.69 1499.35 2042.71C1499.56 2042.74 1499.76 2042.72 1499.95 2042.65C1500.14 2042.58 1500.31 2042.46 1500.44 2042.31C1500.58 2042.16 1500.67 2041.98 1500.71 2041.79L1503.81 2027.26C1504.26 2025.13 1505.57 2024.27 1507.73 2024.69L1523.63 2027.73C1525.58 2028.1 1526.45 2029.27 1526.23 2031.23C1525.2 2039.81 1522.85 2048 1519.18 2055.8C1518.79 2056.61 1518.96 2057.29 1519.7 2057.83L1533.63 2067.97C1533.82 2068.11 1533.95 2068.32 1533.99 2068.55C1534.03 2068.78 1533.98 2069.01 1533.84 2069.21L1521.73 2086.67C1521.68 2086.76 1521.6 2086.83 1521.51 2086.88C1521.42 2086.94 1521.33 2086.97 1521.23 2086.99C1521.12 2087 1521.02 2087 1520.92 2086.97C1520.82 2086.95 1520.73 2086.9 1520.65 2086.84L1506.38 2076.33C1505.69 2075.82 1505.01 2075.85 1504.35 2076.42C1483.21 2094.54 1445.72 2102.41 1423.04 2081.54C1408.19 2067.83 1415.83 2043.61 1430.44 2032.19C1432.63 2030.49 1434.83 2028.78 1437.04 2027.05C1437.77 2026.49 1437.78 2025.91 1437.09 2025.3C1418.62 2009.66 1416.04 1983.78 1440.71 1972.78C1458.92 1964.65 1489.64 1965.14 1495.17 1988.12C1499.1 2004.38 1489.38 2015.77 1476.66 2024.48C1475.8 2025.08 1475.8 2025.68 1476.63 2026.28ZM1471.69 2001.13C1478.41 1984.25 1452.96 1982.03 1448.18 1994.27C1445.46 2001.22 1451.87 2008.84 1457.95 2012.29C1458.53 2012.62 1459.12 2012.62 1459.72 2012.29C1466.14 2008.76 1470.13 2005.04 1471.69 2001.13ZM1457.4 2071.89C1467.72 2073.01 1478.81 2069.81 1486.64 2062.99C1486.71 2062.93 1486.77 2062.84 1486.81 2062.75C1486.85 2062.66 1486.87 2062.56 1486.87 2062.46C1486.87 2062.36 1486.84 2062.26 1486.8 2062.17C1486.76 2062.08 1486.69 2062 1486.61 2061.94L1456.08 2039.41C1455.35 2038.88 1454.61 2038.86 1453.86 2039.36C1439.97 2048.59 1434.65 2069.39 1457.4 2071.89Z" fill="white"/>
<path d="M1315.35 2049.13C1317.83 2065.9 1313.16 2083.02 1302.37 2096.73C1291.58 2110.44 1275.56 2119.61 1257.83 2122.23C1249.06 2123.53 1240.12 2123.18 1231.54 2121.2C1222.96 2119.22 1214.9 2115.65 1207.83 2110.7C1200.75 2105.74 1194.8 2099.5 1190.31 2092.32C1185.82 2085.15 1182.87 2077.18 1181.65 2068.87C1179.17 2052.1 1183.84 2034.98 1194.63 2021.27C1205.42 2007.56 1221.44 1998.39 1239.17 1995.77C1247.94 1994.47 1256.88 1994.82 1265.46 1996.8C1274.04 1998.78 1282.1 2002.35 1289.17 2007.3C1296.25 2012.26 1302.2 2018.5 1306.69 2025.68C1311.18 2032.85 1314.13 2040.82 1315.35 2049.13ZM1254.4 2098.04C1259.41 2097.28 1264.22 2095.52 1268.56 2092.86C1272.89 2090.2 1276.66 2086.68 1279.66 2082.52C1282.66 2078.36 1284.82 2073.63 1286.02 2068.61C1287.22 2063.58 1287.44 2058.35 1286.66 2053.23C1285.1 2042.87 1279.58 2033.55 1271.31 2027.31C1263.05 2021.07 1252.72 2018.43 1242.6 2019.96C1237.59 2020.72 1232.78 2022.48 1228.44 2025.14C1224.11 2027.8 1220.34 2031.32 1217.34 2035.48C1214.34 2039.64 1212.18 2044.37 1210.98 2049.39C1209.78 2054.42 1209.56 2059.65 1210.34 2064.77C1211.9 2075.13 1217.42 2084.45 1225.69 2090.69C1233.95 2096.93 1244.28 2099.57 1254.4 2098.04Z" fill="white"/>
<path d="M1077.47 2113.38L1082.27 2144.68C1082.3 2144.83 1082.29 2144.99 1082.25 2145.14C1082.21 2145.29 1082.14 2145.43 1082.05 2145.56C1081.95 2145.68 1081.84 2145.79 1081.7 2145.87C1081.57 2145.95 1081.42 2146 1081.26 2146.02L1055.02 2149.99C1054.93 2150.01 1054.84 2150 1054.75 2149.98C1054.66 2149.96 1054.58 2149.92 1054.5 2149.87C1054.43 2149.81 1054.37 2149.74 1054.32 2149.66C1054.27 2149.58 1054.24 2149.49 1054.22 2149.4L1036.01 2030C1035.98 2029.78 1036.03 2029.57 1036.16 2029.4C1036.28 2029.23 1036.46 2029.11 1036.67 2029.08C1054.8 2026.27 1073.03 2023.5 1091.36 2020.76C1115.48 2017.16 1138.94 2026.23 1146.28 2051.41C1151.8 2070.39 1146.13 2086.26 1129.27 2099.02C1129.21 2099.06 1129.17 2099.11 1129.14 2099.17C1129.11 2099.23 1129.09 2099.3 1129.08 2099.36C1129.08 2099.43 1129.09 2099.5 1129.11 2099.56C1129.14 2099.62 1129.17 2099.68 1129.22 2099.73L1160.82 2132.9C1160.9 2132.98 1160.96 2133.08 1160.98 2133.19C1161.01 2133.3 1161 2133.42 1160.97 2133.52C1160.93 2133.63 1160.86 2133.73 1160.78 2133.8C1160.69 2133.87 1160.58 2133.92 1160.47 2133.93L1132.68 2138.19C1131.8 2138.31 1131.06 2138.06 1130.47 2137.44L1104.3 2109.69C1103.4 2108.75 1102.32 2108.38 1101.05 2108.59L1078.53 2111.95C1077.7 2112.08 1077.35 2112.55 1077.47 2113.38ZM1067.61 2048.57L1073.78 2088.96C1073.79 2089.06 1073.83 2089.16 1073.88 2089.25C1073.93 2089.34 1074 2089.41 1074.09 2089.48C1074.17 2089.54 1074.26 2089.58 1074.36 2089.6C1074.46 2089.63 1074.57 2089.63 1074.67 2089.62L1100.13 2085.71C1103.04 2085.27 1105.85 2084.33 1108.39 2082.95C1110.92 2081.57 1113.15 2079.77 1114.93 2077.67C1116.72 2075.56 1118.02 2073.18 1118.78 2070.66C1119.53 2068.14 1119.72 2065.54 1119.34 2063L1118.82 2059.74C1118.03 2054.61 1114.95 2050.06 1110.24 2047.07C1105.54 2044.08 1099.6 2042.9 1093.73 2043.8L1068.25 2047.7C1068.05 2047.73 1067.87 2047.84 1067.75 2048.01C1067.64 2048.17 1067.58 2048.37 1067.61 2048.57Z" fill="white"/>
<path d="M968.891 2063.77L983.859 2159.77C983.882 2159.9 983.878 2160.04 983.849 2160.17C983.819 2160.3 983.763 2160.43 983.684 2160.54C983.606 2160.65 983.506 2160.74 983.392 2160.81C983.277 2160.88 983.15 2160.93 983.017 2160.94L957.081 2164.99C956.821 2165.03 956.555 2164.97 956.341 2164.81C956.127 2164.66 955.981 2164.43 955.935 2164.17L940.991 2068.17C940.945 2067.91 940.799 2067.68 940.585 2067.52C940.371 2067.37 940.105 2067.31 939.845 2067.35L903.362 2073.08C903.23 2073.1 903.094 2073.1 902.963 2073.07C902.832 2073.04 902.709 2072.99 902.6 2072.91C902.491 2072.83 902.399 2072.73 902.329 2072.61C902.259 2072.5 902.213 2072.37 902.193 2072.24L899.012 2051.36C898.971 2051.1 899.034 2050.83 899.187 2050.62C899.34 2050.4 899.571 2050.26 899.831 2050.21L1002.59 2034.02C1002.72 2033.99 1002.86 2034 1002.99 2034.03C1003.12 2034.06 1003.24 2034.11 1003.35 2034.19C1003.46 2034.27 1003.55 2034.37 1003.62 2034.48C1003.69 2034.6 1003.74 2034.73 1003.76 2034.86L1006.99 2055.76C1007.03 2056.02 1006.97 2056.29 1006.81 2056.5C1006.66 2056.72 1006.43 2056.86 1006.17 2056.91L969.733 2062.62C969.469 2062.66 969.233 2062.81 969.075 2063.02C968.917 2063.24 968.851 2063.51 968.891 2063.77Z" fill="white"/>
<path d="M817.89 2107.1C820.384 2108.47 824.437 2109.32 830.049 2109.65C842.723 2110.38 853.05 2111.36 861.031 2112.6C881.562 2115.73 895.077 2131.97 889.886 2152.98C880.93 2189.15 821.935 2191.25 795.419 2179.88C794.717 2179.59 794.46 2179.07 794.647 2178.34L800.095 2157.61C800.129 2157.49 800.188 2157.37 800.27 2157.27C800.351 2157.18 800.453 2157.1 800.567 2157.04C800.681 2156.99 800.805 2156.96 800.929 2156.96C801.054 2156.96 801.176 2156.99 801.288 2157.05C814.897 2163.2 854.835 2169.43 862.645 2150.87C867.041 2140.41 853.081 2136.11 844.546 2135.62C826.986 2134.61 800.329 2135.29 789.246 2118.35C784.834 2111.63 783.205 2104.03 784.359 2095.56C789.409 2058.55 845.248 2053.57 871.858 2063.39C872.216 2063.53 872.357 2063.78 872.279 2064.14L867.485 2085.76C867.376 2086.26 867.088 2086.42 866.62 2086.23C853.713 2081.2 825.466 2078.09 815.154 2089.95C810.057 2095.82 810.711 2103.14 817.89 2107.1Z" fill="white"/>
<path d="M692.373 2159.86L697.399 2185.49C697.45 2185.75 697.599 2185.97 697.815 2186.12C698.03 2186.26 698.294 2186.31 698.549 2186.27L761.84 2173.9C762.095 2173.85 762.359 2173.9 762.574 2174.05C762.79 2174.19 762.939 2174.41 762.99 2174.67L766.983 2195.08C767.031 2195.33 766.977 2195.59 766.832 2195.81C766.687 2196.02 766.462 2196.17 766.208 2196.22L675.253 2213.98C674.998 2214.03 674.734 2213.98 674.518 2213.83C674.303 2213.69 674.153 2213.46 674.102 2213.21L651.017 2095.5C650.969 2095.25 651.023 2094.98 651.168 2094.77C651.313 2094.55 651.538 2094.41 651.792 2094.35L740.493 2077.02C740.748 2076.97 741.012 2077.02 741.227 2077.17C741.443 2077.31 741.592 2077.54 741.643 2077.79L745.682 2098.2C745.731 2098.45 745.677 2098.71 745.532 2098.93C745.386 2099.14 745.162 2099.29 744.907 2099.35L683.848 2111.25C683.594 2111.3 683.369 2111.45 683.224 2111.66C683.079 2111.88 683.025 2112.14 683.073 2112.39L687.723 2136.32C687.774 2136.57 687.924 2136.79 688.139 2136.94C688.355 2137.08 688.619 2137.14 688.874 2137.09L742.606 2126.59C742.861 2126.54 743.125 2126.6 743.341 2126.74C743.556 2126.89 743.706 2127.11 743.757 2127.37L747.632 2147.09C747.68 2147.35 747.626 2147.61 747.481 2147.83C747.336 2148.04 747.111 2148.19 746.857 2148.24L693.148 2158.71C692.893 2158.76 692.669 2158.91 692.524 2159.13C692.379 2159.34 692.325 2159.61 692.373 2159.86Z" fill="white"/>
<path d="M604.485 2190.87L637.479 2220.71C638.276 2221.41 638.159 2221.89 637.128 2222.14L610.32 2228.36C609.429 2228.57 608.64 2228.36 607.953 2227.73L579.294 2201.62C578.747 2201.12 578.106 2200.95 577.372 2201.1L554.852 2206.29C553.821 2206.53 553.423 2207.16 553.657 2208.19L560.664 2238.53C560.851 2239.39 560.523 2239.92 559.679 2240.1L534.395 2245.97C534.259 2246 534.119 2246.01 533.982 2245.99C533.845 2245.96 533.714 2245.91 533.596 2245.84C533.479 2245.76 533.377 2245.67 533.297 2245.55C533.217 2245.44 533.16 2245.31 533.129 2245.17L506.017 2127.82C505.977 2127.65 506.009 2127.48 506.105 2127.33C506.201 2127.18 506.355 2127.07 506.532 2127.02C523.81 2123 541.159 2118.98 558.578 2114.98C586.792 2108.45 611.116 2117.91 618.943 2145.88C623.77 2163.14 617.068 2177.18 604.485 2188.85C603.735 2189.52 603.735 2190.19 604.485 2190.87ZM538.917 2144.42L547.939 2183.54C548.006 2183.82 548.181 2184.07 548.427 2184.22C548.673 2184.37 548.969 2184.42 549.252 2184.36L573.974 2178.66C576.832 2177.99 579.547 2176.84 581.965 2175.27C584.383 2173.7 586.457 2171.73 588.067 2169.48C589.677 2167.23 590.793 2164.75 591.35 2162.17C591.907 2159.59 591.895 2156.97 591.315 2154.45L590.635 2151.51C589.463 2146.43 586.047 2142.08 581.138 2139.43C576.229 2136.78 570.23 2136.04 564.46 2137.38L539.761 2143.11C539.619 2143.14 539.485 2143.2 539.366 2143.28C539.247 2143.36 539.145 2143.47 539.067 2143.59C538.988 2143.71 538.935 2143.85 538.909 2143.99C538.884 2144.13 538.886 2144.28 538.917 2144.42Z" fill="white"/>
</svg>
