<svg width="401" height="131" viewBox="0 0 401 131" fill="none" xmlns="http://www.w3.org/2000/svg">
<path d="M29.9617 6.24937C45.5938 6.24937 58.2484 15.5542 58.2484 40.026C58.2484 64.777 45.5938 73.5235 29.9617 73.5235C14.3295 73.5235 1.76792 64.777 1.76792 40.026C1.76792 15.182 14.3295 6.24937 29.9617 6.24937ZM47.4548 56.0304C47.4548 51.1919 47.7339 43.841 46.2452 38.5372C42.6163 24.673 38.336 15.6473 17.4931 15.6473C13.399 15.6473 11.3519 19.1831 11.538 26.2548C11.538 30.9073 12.3755 36.5832 14.0503 42.7244C17.4001 55.193 23.2622 66.3588 39.9179 66.3588C45.5938 66.3588 47.4548 61.9855 47.4548 56.0304ZM99.9793 7.459H115.611C112.448 12.8558 112.448 18.0665 112.448 18.0665C112.448 18.0665 112.448 43.9341 112.448 50.6336C112.448 57.4261 108.819 73.4305 88.2552 73.4305C68.9011 73.4305 64.7139 61.5203 64.4347 48.9587V17.9735C64.3417 17.2291 64.3417 11.367 60.9919 7.459H80.9974C77.6476 12.8558 77.6476 18.0665 77.6476 18.0665C77.7407 28.8602 77.9268 39.0955 77.9268 50.4475C77.9268 61.8925 87.0455 66.4518 94.4894 66.4518C102.212 66.4518 103.143 56.6817 103.143 50.9127C103.143 45.1437 103.143 17.7874 103.143 17.7874C103.143 16.4847 102.492 10.9949 99.9793 7.459ZM115.832 7.459H171.289L166.451 19.4623L160.682 15.089C159.565 14.2516 158.356 13.7863 156.867 13.6933H149.516V61.7064C149.516 61.7064 149.516 66.9171 152.959 72.2209H133.512C136.954 68.4059 137.048 62.5438 137.048 61.7994V13.6933H129.883C128.487 13.7863 127.277 14.2516 126.068 15.089L120.392 19.4623L115.832 7.459ZM196.338 7.459C196.338 7.459 223.694 7.459 223.694 36.4902C223.694 72.2209 192.523 72.3139 192.523 72.3139H171.773C175.123 68.4059 175.216 62.6368 175.216 61.7994V17.9735C175.216 17.1361 175.123 11.367 171.773 7.459H196.338ZM190.29 66.0796C193.918 66.0796 210.853 64.6839 210.853 38.6303C210.853 13.7863 191.964 13.7863 191.964 13.7863H187.684V66.0796H190.29ZM255.132 6.24937C270.764 6.24937 283.419 15.5542 283.419 40.026C283.419 64.777 270.764 73.5235 255.132 73.5235C239.5 73.5235 226.938 64.777 226.938 40.026C226.938 15.182 239.5 6.24937 255.132 6.24937ZM272.625 56.0304C272.625 51.1919 272.904 43.841 271.416 38.5372C267.787 24.673 263.506 15.6473 242.664 15.6473C238.569 15.6473 236.522 19.1831 236.708 26.2548C236.708 30.9073 237.546 36.5832 239.221 42.7244C242.571 55.193 248.433 66.3588 265.088 66.3588C270.764 66.3588 272.625 61.9855 272.625 56.0304ZM315.287 6.24937C330.919 6.24937 343.573 15.5542 343.573 40.026C343.573 64.777 330.919 73.5235 315.287 73.5235C299.654 73.5235 287.093 64.777 287.093 40.026C287.093 15.182 299.654 6.24937 315.287 6.24937ZM332.78 56.0304C332.78 51.1919 333.059 43.841 331.57 38.5372C327.941 24.673 323.661 15.6473 302.818 15.6473C298.724 15.6473 296.677 19.1831 296.863 26.2548C296.863 30.9073 297.7 36.5832 299.375 42.7244C302.725 55.193 308.587 66.3588 325.243 66.3588C330.919 66.3588 332.78 61.9855 332.78 56.0304ZM376.558 39.7469C380 45.6089 392.841 67.0101 400.564 72.3139C400.564 72.3139 396.563 72.9652 392.469 72.9652C389.584 72.9652 386.7 72.6861 384.932 71.5695C381.117 69.2433 365.764 44.7715 362.786 39.933V61.7064C362.786 61.7064 362.786 67.7545 366.229 72.3139H346.875C350.225 68.4059 350.318 62.6368 350.318 61.7994V17.9735C350.318 17.1361 350.225 11.367 346.875 7.459H373.673C373.673 7.459 390.98 7.459 390.98 21.1372C390.98 34.5362 382.141 38.5372 376.558 39.7469ZM366.788 36.5832C366.788 36.5832 379.256 36.3971 379.256 23.2773C379.256 13.7863 366.788 13.7863 366.788 13.7863H362.786V36.5832H366.788Z" fill="white"/>
<line x1="62" y1="112" x2="130" y2="112" stroke="white"/>
<path d="M139.54 122.428C140.836 120.916 140.872 118.684 140.872 118.36V101.404C140.872 101.08 140.836 98.848 139.54 97.336H146.632C145.3 99.424 145.3 101.44 145.3 101.44V120.016H150.7C151.24 119.98 151.744 119.8 152.176 119.476L154.372 117.748L156.208 122.428H139.54ZM165.92 96.868C171.968 96.868 176.864 100.468 176.864 109.936C176.864 119.512 171.968 122.896 165.92 122.896C159.872 122.896 155.012 119.512 155.012 109.936C155.012 100.324 159.872 96.868 165.92 96.868ZM172.688 116.128C172.688 114.256 172.796 111.412 172.22 109.36C170.816 103.996 169.16 100.504 161.096 100.504C159.512 100.504 158.72 101.872 158.792 104.608C158.792 106.408 159.116 108.604 159.764 110.98C161.06 115.804 163.328 120.124 169.772 120.124C171.968 120.124 172.688 118.432 172.688 116.128ZM193.01 97.336H199.058C197.834 99.424 197.834 101.44 197.834 101.44C197.834 101.44 197.834 111.448 197.834 114.04C197.834 116.668 196.43 122.86 188.474 122.86C180.986 122.86 179.366 118.252 179.258 113.392V101.404C179.222 101.116 179.222 98.848 177.926 97.336H185.666C184.37 99.424 184.37 101.44 184.37 101.44C184.406 105.616 184.478 109.576 184.478 113.968C184.478 118.396 188.006 120.16 190.886 120.16C193.874 120.16 194.234 116.38 194.234 114.148C194.234 111.916 194.234 101.332 194.234 101.332C194.234 100.828 193.982 98.704 193.01 97.336ZM215.847 97.336H221.427C220.563 98.848 220.167 100.072 220.167 102.16V122.896C218.007 122.968 216.315 122.104 215.163 120.268L204.399 105.328V117.388C204.399 119.728 204.831 120.916 205.695 122.428H200.151C201.015 120.916 201.411 119.728 201.411 117.388V102.376C201.411 100.036 201.015 98.848 200.151 97.336H205.083L217.107 114.652V102.376C217.107 100.036 216.747 98.848 215.847 97.336ZM236.08 110.98H243.172C241.696 112.744 241.696 115.228 241.696 115.228V119.692C239.68 121.96 236.692 122.896 233.596 122.896C227.548 122.896 222.688 119.512 222.688 109.936C222.688 100.324 227.548 96.868 233.596 96.868C236.62 96.868 239.392 97.768 241.336 99.856L237.484 104.608C236.116 102.088 233.848 100.504 228.772 100.504C227.188 100.504 226.396 101.872 226.468 104.644C226.468 106.408 226.792 108.64 227.44 110.98C228.7 115.552 230.968 120.124 237.088 120.124C237.268 120.124 237.304 120.124 237.484 120.124V115.228C237.484 115.228 237.484 113.212 236.08 110.98ZM256.634 119.476L258.794 117.64L260.666 122.428H243.638C244.934 120.916 244.97 118.684 244.97 118.36V101.404C244.97 101.08 244.934 98.848 243.638 97.336H260.666L258.866 102.016L256.634 100.288C256.202 99.964 255.734 99.784 255.194 99.748H249.794V108.604H253.502C253.826 108.568 256.058 108.532 257.57 107.236V112.348C255.482 111.016 253.466 111.016 253.466 111.016H249.794V120.016H255.194C255.734 119.98 256.202 119.8 256.634 119.476Z" fill="white"/>
<line x1="270" y1="112" x2="338" y2="112" stroke="white"/>
</svg>
