<svg xmlns="http://www.w3.org/2000/svg" width="28" height="28" viewBox="0 0 28 28" fill="none">
  <path d="M14.1118 10.6043C12.1778 10.6043 10.5995 12.1831 10.5995 14.1177C10.5995 16.0523 12.1778 17.6311 14.1118 17.6311C16.0458 17.6311 17.6241 16.0523 17.6241 14.1177C17.6241 12.1831 16.0458 10.6043 14.1118 10.6043ZM24.6461 14.1177C24.6461 12.6628 24.6593 11.2211 24.5776 9.76882C24.4959 8.08197 24.1112 6.58489 22.8781 5.35137C21.6423 4.11523 20.1484 3.73305 18.462 3.65134C17.0076 3.56964 15.5663 3.58282 14.1145 3.58282C12.66 3.58282 11.2187 3.56964 9.7669 3.65134C8.08057 3.73305 6.58395 4.11786 5.35082 5.35137C4.11506 6.58752 3.733 8.08197 3.65132 9.76882C3.56964 11.2237 3.58281 12.6655 3.58281 14.1177C3.58281 15.57 3.56964 17.0144 3.65132 18.4667C3.733 20.1535 4.1177 21.6506 5.35082 22.8841C6.58659 24.1202 8.08057 24.5024 9.7669 24.5841C11.2214 24.6658 12.6626 24.6527 14.1145 24.6527C15.5689 24.6527 17.0102 24.6658 18.462 24.5841C20.1484 24.5024 21.645 24.1176 22.8781 22.8841C24.1139 21.6479 24.4959 20.1535 24.5776 18.4667C24.6619 17.0144 24.6461 15.5726 24.6461 14.1177ZM14.1118 19.5236C11.1212 19.5236 8.70767 17.1093 8.70767 14.1177C8.70767 11.1262 11.1212 8.7119 14.1118 8.7119C17.1024 8.7119 19.516 11.1262 19.516 14.1177C19.516 17.1093 17.1024 19.5236 14.1118 19.5236ZM19.7373 9.75301C19.0391 9.75301 18.4752 9.18896 18.4752 8.4905C18.4752 7.79204 19.0391 7.228 19.7373 7.228C20.4356 7.228 20.9994 7.79204 20.9994 8.4905C20.9996 8.65635 20.9671 8.82062 20.9038 8.97389C20.8404 9.12715 20.7475 9.26641 20.6302 9.38369C20.513 9.50097 20.3738 9.59395 20.2205 9.65733C20.0673 9.7207 19.9031 9.75321 19.7373 9.75301Z" fill="black"/>
</svg>