<svg xmlns="http://www.w3.org/2000/svg" width="28" height="28" viewBox="0 0 28 28" fill="none">
  <path d="M25.297 7.32351C24.4907 7.67143 23.6133 7.92182 22.7095 8.01934C23.6478 7.46172 24.3505 6.58077 24.6857 5.54178C23.8052 6.06573 22.8406 6.43313 21.8347 6.62769C21.4143 6.17811 20.9059 5.81995 20.341 5.57553C19.7762 5.33112 19.1671 5.20568 18.5517 5.20704C16.0617 5.20704 14.0592 7.22599 14.0592 9.70356C14.0592 10.0515 14.1013 10.3994 14.1698 10.7341C10.4415 10.5391 7.11625 8.75734 4.90557 6.02938C4.50277 6.71761 4.29168 7.50123 4.29428 8.29873C4.29428 9.85906 5.08738 11.2349 6.29679 12.0441C5.58407 12.016 4.88803 11.82 4.2653 11.4721V11.5275C4.2653 13.7125 5.80934 15.5232 7.86719 15.9396C7.4808 16.04 7.08333 16.0914 6.68412 16.0925C6.39165 16.0925 6.11499 16.0635 5.83569 16.024C6.40483 17.8057 8.06217 19.0999 10.0357 19.142C8.49166 20.3518 6.55765 21.0635 4.45764 21.0635C4.08086 21.0635 3.73305 21.0503 3.37207 21.0081C5.36405 22.2864 7.72754 23.0244 10.2728 23.0244C18.5358 23.0244 23.0573 16.1769 23.0573 10.2333C23.0573 10.0383 23.0573 9.84325 23.0441 9.64821C23.9189 9.00773 24.6857 8.21438 25.297 7.32351Z" fill="black"/>
</svg>